<svg width="500" height="500" viewBox="0 0 500 500" fill="none" xmlns="http://www.w3.org/2000/svg">
<rect width="500" height="500" fill="#FF9A62"/>
<ellipse cx="250" cy="149" rx="100" ry="75" fill="#7BD37A"/>
<path d="M387 274C401 399 349 424 249.5 424C150 424 100 400 112 274C112 191.157 173.561 124 249.5 124C325.439 124 387 191.157 387 274Z" fill="#8F886F"/>
<ellipse cx="187.5" cy="239" rx="12.5" ry="15" fill="black"/>
<ellipse cx="312.5" cy="239" rx="12.5" ry="15" fill="black"/>
<path d="M250 174C216.624 209.995 201.037 239.68 200 374C200.34 414.83 213.167 423.928 250.5 425C287.471 423.905 301.391 412.831 300 374C299.443 240.277 283.462 212.914 250 174Z" fill="white" stroke="white"/>
<path d="M270 374C270 382.284 261.046 389 250 389C238.954 389 230 382.284 230 374C230 365.716 238.954 364 250 364C261.046 364 270 365.716 270 374Z" fill="#FFC0CB"/>
<circle cx="325" cy="99" r="25" fill="#7BD37A"/>
<circle cx="175" cy="99" r="25" fill="#7BD37A"/>
<circle cx="175" cy="99" r="20" fill="white"/>
<circle cx="174.5" cy="99.5" r="7.5" fill="black"/>
<circle cx="325" cy="99" r="20" fill="white"/>
<circle cx="324.5" cy="99.5" r="7.5" fill="black"/>
<path d="M413.087 312.92C413.595 313.136 414.183 312.9 414.4 312.392C414.616 311.884 414.38 311.297 413.872 311.08L413.087 312.92ZM288.899 317.908C299.93 312.807 323.407 308.314 348.018 306.737C372.64 305.158 398.08 306.519 413.087 312.92L413.872 311.08C398.399 304.481 372.546 303.16 347.89 304.741C323.225 306.322 299.441 310.83 288.06 316.092L288.899 317.908Z" fill="white"/>
<path d="M391.838 334.681C392.346 334.897 392.934 334.661 393.15 334.153C393.367 333.645 393.131 333.058 392.623 332.841L391.838 334.681ZM287.778 338.863C297.005 334.597 316.676 330.829 337.32 329.506C357.975 328.181 379.285 329.327 391.838 334.681L392.623 332.841C379.604 327.288 357.88 326.183 337.192 327.51C316.494 328.837 296.515 332.62 286.939 337.048L287.778 338.863Z" fill="white"/>
<path d="M379.847 350.911C380.355 351.127 380.943 350.891 381.159 350.383C381.376 349.875 381.14 349.288 380.632 349.071L379.847 350.911ZM287.72 354.616C295.877 350.844 313.292 347.506 331.585 346.334C349.887 345.16 368.749 346.177 379.847 350.911L380.632 349.071C369.068 344.139 349.792 343.162 331.457 344.338C313.111 345.514 295.387 348.867 286.881 352.801L287.72 354.616Z" fill="white"/>
<path d="M87.3937 312.875C86.886 313.092 86.2982 312.857 86.0808 312.349C85.8633 311.841 86.0986 311.254 86.6063 311.036L87.3937 312.875ZM211.139 317.863C200.148 312.762 176.755 308.27 152.231 306.692C127.696 305.114 102.346 306.475 87.3937 312.875L86.6063 311.036C102.026 304.436 127.79 303.116 152.359 304.696C176.937 306.278 200.639 310.785 211.98 316.049L211.139 317.863Z" fill="white"/>
<path d="M108.568 334.636C108.06 334.853 107.473 334.618 107.255 334.11C107.038 333.602 107.273 333.014 107.781 332.797L108.568 334.636ZM212.256 338.818C203.063 334.552 183.463 330.785 162.891 329.461C142.31 328.137 121.076 329.282 108.568 334.636L107.781 332.797C120.755 327.244 142.404 326.139 163.019 327.465C183.644 328.792 203.554 332.576 213.098 337.004L212.256 338.818Z" fill="white"/>
<path d="M120.517 350.866C120.009 351.083 119.421 350.848 119.204 350.34C118.986 349.832 119.222 349.245 119.729 349.027L120.517 350.866ZM212.314 354.571C204.187 350.8 186.834 347.462 168.606 346.289C150.369 345.116 131.574 346.133 120.517 350.866L119.729 349.027C131.254 344.095 150.463 343.118 168.734 344.293C187.016 345.469 204.678 348.823 213.155 352.757L212.314 354.571Z" fill="white"/>
<path d="M364.07 191.175C348.47 199.791 348.58 173.341 348.58 173.341L381.944 163C374.964 174.003 379.67 182.56 364.07 191.175Z" fill="#8F886F"/>
<path d="M135.411 188.677C150.734 197.551 151.124 170.524 151.124 170.524L118.198 159.807C124.92 171.082 120.087 179.804 135.411 188.677Z" fill="#8F886F"/>
</svg>
