<svg width="500" height="500" viewBox="0 0 500 500" fill="none" xmlns="http://www.w3.org/2000/svg">
<rect width="500" height="500" fill="white"/>
<path d="M258.551 438.999C244.259 439.134 230.028 429.495 234.416 422.916C238.804 416.337 286.343 404.332 348.509 350.544C410.676 296.755 386.451 261.294 379.227 252.585C372.003 243.876 325.106 221.151 311.21 217.496C301.374 214.909 299.233 214.153 298.822 213.932C302.421 221.332 300.97 243.082 300.97 243.082C293.657 275.247 289.269 268.668 289.269 268.668C289.269 268.668 300.239 253.316 279.029 221.151C270.175 207.723 177.37 104.917 165.668 104.917C153.966 104.917 137.543 177.294 203.699 238.696C213.938 248.199 165.668 213.841 153.966 202.875C142.264 191.91 140.07 184.599 140.07 184.599C127.637 238.696 217.595 295.716 203.699 295.716C151.772 278.903 84.4861 202.875 88.1429 136.351C88.1429 136.351 94.7252 125.386 127.637 165.593C127.637 165.593 118.129 107.841 134.219 82.9859C150.309 58.1308 160.548 55.9377 261.477 179.482C244.655 156.82 246.849 135.62 257.82 121.731C268.79 107.841 292.194 82.9859 319.986 67.6342C346.755 61.5883 357.353 64.3222 372.645 74.2135C374.56 91.8317 372.273 91.0137 379.227 104.917C386.181 118.82 393.854 117.344 398.242 117.344C402.631 117.344 393.854 121.731 393.854 121.731C393.854 121.731 356.554 107.841 341.196 99.7997C325.837 91.7583 324.374 82.9859 324.374 82.9859C283.418 107.841 268.059 136.351 271.716 150.241C280.82 184.825 308.284 194.834 338.27 206.53C486.006 256.972 366.062 355.661 366.062 355.661C298.777 409.757 243.192 420.723 249.775 427.302L258.551 438.999Z" fill="black"/>
</svg>
