<svg width="500" height="500" viewBox="0 0 500 500" fill="none" xmlns="http://www.w3.org/2000/svg">
<path d="M260.24 475.998C243.125 476.16 226.083 464.63 231.338 456.759C236.593 448.888 293.522 434.527 367.968 370.181C442.414 305.834 413.404 263.413 404.753 252.995C396.102 242.576 339.941 215.39 323.301 211.018C311.522 207.923 308.958 207.018 308.465 206.754C312.776 215.606 311.039 241.626 311.039 241.626C302.28 280.105 297.026 272.234 297.026 272.234C297.026 272.234 310.163 253.869 284.764 215.39C274.16 199.326 163.023 76.3409 149.009 76.3409C134.996 76.3409 115.33 162.924 194.553 236.379C206.814 247.748 149.009 206.645 134.996 193.527C120.983 180.409 118.355 171.664 118.355 171.664C103.466 236.379 211.193 304.592 194.553 304.592C132.369 284.478 51.7919 193.527 56.1711 113.945C56.1711 113.945 64.0536 100.828 103.466 148.926C103.466 148.926 92.0803 79.839 111.349 50.1052C130.617 20.3714 142.879 17.7477 263.744 165.542C243.599 138.432 246.227 113.071 259.364 96.4549C272.502 79.839 300.529 50.1052 333.811 31.7402C365.867 24.5075 378.558 27.778 396.871 39.6109C399.165 60.6872 396.425 59.7087 404.753 76.3409C413.081 92.9731 422.27 91.2078 427.525 91.2078C432.78 91.2078 422.27 96.4549 422.27 96.4549C422.27 96.4549 377.602 79.839 359.21 70.2192C340.818 60.5995 339.066 50.1052 339.066 50.1052C290.019 79.839 271.626 113.945 276.005 130.561C286.908 171.934 319.797 183.907 355.706 197.9C532.624 258.242 388.988 376.303 388.988 376.303C308.411 441.017 241.848 454.135 249.73 462.006L260.24 475.998Z" fill="white"/>
</svg>
